<?xml version="1.0" standalone="no"?>
<!DOCTYPE svg PUBLIC "-//W3C//DTD SVG 20010904//EN"
 "http://www.w3.org/TR/2001/REC-SVG-20010904/DTD/svg10.dtd">
<svg version="1.0" xmlns="http://www.w3.org/2000/svg"
 width="400.000000pt" height="400.000000pt" viewBox="0 0 400.000000 400.000000"
 preserveAspectRatio="xMidYMid meet">
<metadata>
Created by potrace 1.14, written by Peter Selinger 2001-2017
</metadata>
<g transform="translate(0.000000,400.000000) scale(0.100000,-0.100000)"
fill="#000000" stroke="none">
<path d="M2911 3710 c-74 -16 -178 -60 -241 -102 -137 -91 -252 -260 -286
-418 -23 -109 -15 -262 18 -357 14 -40 24 -73 22 -73 -3 0 0 -6 6 -12 5 -7 28
-41 50 -74 89 -137 253 -252 410 -288 94 -22 275 -15 360 14 106 36 190 88
271 169 83 83 134 166 171 276 20 60 23 89 22 205 0 119 -3 144 -26 208 -38
107 -83 177 -168 263 -81 82 -164 134 -270 169 -74 25 -263 36 -339 20z"/>
<path d="M1558 3505 c-2 -2 -78 -6 -169 -9 -172 -5 -234 -13 -337 -46 -318
-102 -575 -364 -668 -680 -39 -133 -41 -190 -39 -890 2 -712 1 -704 60 -870
125 -351 445 -607 823 -658 108 -15 1292 -12 1403 4 445 61 806 431 858 879 4
39 8 216 7 395 -1 323 -1 325 -24 357 -42 59 -122 61 -174 3 l-28 -30 -1 -323
c-1 -177 -3 -335 -4 -352 -11 -102 -40 -198 -87 -290 -99 -194 -286 -340 -513
-401 -65 -18 -115 -19 -745 -19 -627 0 -680 1 -745 19 -308 82 -531 317 -589
621 -12 67 -15 185 -15 705 0 361 4 650 10 685 15 87 56 199 103 279 46 77
157 196 227 243 80 55 198 107 265 118 16 3 52 9 79 14 28 5 199 10 380 10
l330 1 28 28 c56 56 51 137 -11 179 -32 21 -44 22 -218 22 -101 0 -188 2 -193
5 -4 3 -10 3 -13 1z"/>
</g>
</svg>
